<svg width="18" height="18" viewBox="0 0 18 18" fill="none" xmlns="http://www.w3.org/2000/svg">
<path d="M9 11.25C10.2426 11.25 11.25 10.2426 11.25 9C11.25 7.75736 10.2426 6.75 9 6.75C7.75736 6.75 6.75 7.75736 6.75 9C6.75 10.2426 7.75736 11.25 9 11.25Z" fill="white"/>
<path d="M9 18C10.2426 18 11.25 16.9926 11.25 15.75C11.25 14.5074 10.2426 13.5 9 13.5C7.75736 13.5 6.75 14.5074 6.75 15.75C6.75 16.9926 7.75736 18 9 18Z" fill="white"/>
<path d="M9 4.5C10.2426 4.5 11.25 3.49264 11.25 2.25C11.25 1.00736 10.2426 0 9 0C7.75736 0 6.75 1.00736 6.75 2.25C6.75 3.49264 7.75736 4.5 9 4.5Z" fill="white"/>
</svg>
