<svg width="16" height="16" viewBox="0 0 16 16" fill="none" xmlns="http://www.w3.org/2000/svg">
<path d="M13.5 0.5625H2.5C1.12146 0.5625 0 1.68396 0 3.0625V11.8125C0 13.191 1.12146 14.3125 2.5 14.3125H11.0312C11.3765 14.3125 11.6562 14.0327 11.6562 13.6875C11.6562 13.3423 11.3765 13.0625 11.0312 13.0625H8.72925L7.29224 11.1982L11.8461 5.40613L14.9116 8.79431C15.085 8.98608 15.3585 9.05115 15.5997 8.95825C15.8408 8.86523 16 8.63342 16 8.375V3.0625C16 1.68396 14.8785 0.5625 13.5 0.5625V0.5625ZM14.75 6.75269L12.276 4.01819C12.1525 3.88159 11.9747 3.80615 11.7909 3.81287C11.6069 3.81934 11.4351 3.90649 11.3212 4.05127L6.505 10.177L4.87 8.05591C4.75171 7.90247 4.56885 7.8125 4.375 7.8125C4.37488 7.8125 4.37476 7.8125 4.37463 7.8125C4.18079 7.81262 3.9978 7.90271 3.87964 8.0564L2.50415 9.84448C2.2937 10.1182 2.34485 10.5105 2.61841 10.7209C2.89209 10.9315 3.28442 10.8802 3.495 10.6067L4.37549 9.46191L7.151 13.0625H2.5C1.81079 13.0625 1.25 12.5017 1.25 11.8125V3.0625C1.25 2.37329 1.81079 1.8125 2.5 1.8125H13.5C14.1892 1.8125 14.75 2.37329 14.75 3.0625V6.75269Z" fill="#FEFEFE"/>
<path d="M4.375 2.8125C3.34106 2.8125 2.5 3.65356 2.5 4.6875C2.5 5.72144 3.34106 6.5625 4.375 6.5625C5.40894 6.5625 6.25 5.72144 6.25 4.6875C6.25 3.65356 5.40894 2.8125 4.375 2.8125ZM4.375 5.3125C4.0304 5.3125 3.75 5.0321 3.75 4.6875C3.75 4.3429 4.0304 4.0625 4.375 4.0625C4.7196 4.0625 5 4.3429 5 4.6875C5 5.0321 4.7196 5.3125 4.375 5.3125Z" fill="#FEFEFE"/>
<path d="M14.6399 10.0294C14.6381 10.0276 14.6363 10.0256 14.6344 10.0238C14.339 9.72632 13.9461 9.5625 13.5279 9.5625C13.1109 9.5625 12.719 9.72534 12.424 10.0211L11.2173 11.2113C10.9716 11.4536 10.9689 11.8494 11.2113 12.0951C11.4536 12.3408 11.8494 12.3436 12.0951 12.1012L12.9029 11.3046V14.8125C12.9029 15.1577 13.1826 15.4375 13.5279 15.4375C13.8731 15.4375 14.1529 15.1577 14.1529 14.8125V11.3236L14.9259 12.1222C15.0485 12.2489 15.2117 12.3125 15.375 12.3125C15.5316 12.3125 15.6884 12.254 15.8097 12.1366C16.0578 11.8965 16.0641 11.5009 15.824 11.2528L14.6399 10.0294Z" fill="#FEFEFE"/>
</svg>
