<svg width="14" height="14" viewBox="0 0 14 14" fill="none" xmlns="http://www.w3.org/2000/svg">
<g clip-path="url(#clip0)">
<path d="M7.03795 3.21642C6.37273 3.21642 5.80439 3.50267 5.55488 3.96324C5.50083 4.06279 5.5379 4.18723 5.63744 4.24117C5.73699 4.29522 5.86143 4.25815 5.91537 4.1586C6.09054 3.83539 6.53113 3.62647 7.03795 3.62647C7.54488 3.62647 7.98548 3.83539 8.16065 4.1586C8.19782 4.22718 8.26831 4.26606 8.34105 4.26606C8.37406 4.26606 8.4076 4.25805 8.43857 4.24128C8.53812 4.18734 8.57508 4.0629 8.52114 3.96324C8.27163 3.50267 7.70328 3.21642 7.03795 3.21642Z" fill="white"/>
<path d="M9.13028 3.4719C9.16745 3.54037 9.23794 3.57925 9.31068 3.57925C9.34368 3.57925 9.37722 3.57124 9.4082 3.55447C9.50775 3.50053 9.5447 3.37609 9.49076 3.27655C9.082 2.52214 8.14216 2.05367 7.03794 2.05367C5.93383 2.05367 4.994 2.52225 4.58523 3.27655C4.53129 3.37609 4.56824 3.50053 4.66779 3.55447C4.76734 3.60841 4.89178 3.57145 4.94572 3.4719C5.28271 2.85005 6.08444 2.46371 7.03794 2.46371C7.99156 2.46371 8.79328 2.84994 9.13028 3.4719Z" fill="white"/>
<path d="M3.63998 3.01645C3.73963 3.0705 3.86396 3.03354 3.91801 2.93399C4.42387 2.00121 5.61941 1.42175 7.03808 1.42175C8.45665 1.42175 9.65219 2.00121 10.1582 2.93399C10.1952 3.00246 10.2657 3.04134 10.3386 3.04134C10.3716 3.04134 10.405 3.03333 10.4361 3.01645C10.5356 2.96251 10.5726 2.83807 10.5185 2.73853C9.9409 1.6734 8.60725 1.0117 7.03808 1.0117C5.46891 1.0117 4.13526 1.6734 3.55752 2.73853C3.50358 2.83807 3.54054 2.96251 3.63998 3.01645V3.01645Z" fill="white"/>
<path d="M10.9754 7.26556C11.2693 7.26556 11.5083 7.02619 11.5083 6.73192C11.5083 6.43764 11.2693 6.19827 10.9754 6.19827C10.6812 6.19827 10.4418 6.43764 10.4418 6.73192C10.4418 7.02619 10.6812 7.26556 10.9754 7.26556ZM10.9754 6.60833C11.0432 6.60833 11.0982 6.66377 11.0982 6.73192C11.0982 6.799 11.0421 6.85561 10.9754 6.85561C10.9073 6.85561 10.8518 6.80006 10.8518 6.73192C10.8518 6.66377 10.9074 6.60833 10.9754 6.60833Z" fill="white"/>
<path d="M10.9754 7.88483C10.6812 7.88483 10.4418 8.1243 10.4418 8.41856C10.4418 8.71282 10.6812 8.95218 10.9754 8.95218C11.2693 8.95218 11.5083 8.71282 11.5083 8.41856C11.5083 8.1243 11.2693 7.88483 10.9754 7.88483V7.88483ZM10.9754 8.54214C10.9073 8.54214 10.8518 8.4867 10.8518 8.41856C10.8518 8.35041 10.9073 8.29487 10.9754 8.29487C11.0421 8.29487 11.0982 8.35148 11.0982 8.41856C11.0984 8.4867 11.0432 8.54214 10.9754 8.54214Z" fill="white"/>
<path d="M10.6649 7.57519C10.6649 7.28103 10.4256 7.04155 10.1313 7.04155C9.83702 7.04155 9.59766 7.28092 9.59766 7.57519C9.59766 7.86946 9.83702 8.10894 10.1313 8.10894C10.4256 8.10894 10.6649 7.86946 10.6649 7.57519ZM10.1313 7.69888C10.0631 7.69888 10.0077 7.64344 10.0077 7.57519C10.0077 7.50704 10.0631 7.45161 10.1313 7.45161C10.1994 7.45161 10.255 7.50704 10.255 7.57519C10.255 7.64344 10.1994 7.69888 10.1313 7.69888Z" fill="white"/>
<path d="M11.8187 7.04155C11.5244 7.04155 11.2849 7.28092 11.2849 7.57519C11.2849 7.86946 11.5244 8.10894 11.8187 8.10894C12.1129 8.10894 12.3523 7.86946 12.3523 7.57519C12.3523 7.28103 12.1129 7.04155 11.8187 7.04155V7.04155ZM11.8187 7.69888C11.7505 7.69888 11.695 7.64344 11.695 7.57519C11.695 7.50704 11.7505 7.45161 11.8187 7.45161C11.8868 7.45161 11.9422 7.50704 11.9422 7.57519C11.9422 7.64344 11.8868 7.69888 11.8187 7.69888Z" fill="white"/>
<path d="M5.08789 8.36003C4.55223 8.36003 4.11633 8.79582 4.11633 9.33159C4.11633 9.86735 4.55223 10.3031 5.08789 10.3031C5.62365 10.3031 6.05944 9.86724 6.05944 9.33159C6.05944 8.79582 5.62365 8.36003 5.08789 8.36003ZM5.08789 9.8932C4.77824 9.8932 4.52638 9.64123 4.52638 9.33159C4.52638 9.02194 4.77824 8.77008 5.08789 8.77008C5.39753 8.77008 5.6495 9.02194 5.6495 9.33159C5.6495 9.64123 5.39753 9.8932 5.08789 9.8932V9.8932Z" fill="white"/>
<path d="M13.906 10.722L12.9185 6.6456C12.7765 6.05931 12.4944 5.61241 12.0801 5.31729C11.9946 5.25641 11.9039 5.20268 11.809 5.15633V5.07237C11.809 4.64566 11.4621 4.29852 11.0359 4.29852H10.5763C10.1494 4.29852 9.8023 4.64566 9.8023 5.07237V5.19083C9.63684 5.28098 9.50621 5.39089 9.42781 5.51233H7.4503C7.33708 5.51233 7.24523 5.60408 7.24523 5.7173C7.24523 5.83052 7.33708 5.92238 7.4503 5.92238H9.35273V6.34129C9.35273 6.57276 9.16474 6.76106 8.93381 6.76106H5.06616C4.83481 6.76106 4.6465 6.57276 4.6465 6.34129V5.92238H6.50321C6.61643 5.92238 6.70818 5.83052 6.70818 5.7173C6.70818 5.60408 6.61643 5.51233 6.50321 5.51233H4.57141C4.49323 5.3911 4.36292 5.2813 4.19768 5.19115V5.07237C4.19768 4.64566 3.85054 4.29842 3.42372 4.29842H2.96496C2.53815 4.29842 2.19101 4.64566 2.19101 5.07237V5.15622C2.09627 5.20258 2.0059 5.2562 1.92056 5.31686C1.50592 5.61188 1.22362 6.05899 1.08145 6.6456L0.0939757 10.7219C-0.0513949 11.3216 -0.0280032 11.829 0.163403 12.2299C0.334622 12.5884 0.631558 12.8414 1.02217 12.9615C1.85925 13.2189 2.83935 12.7893 3.11963 12.0422L3.59398 10.7787C3.65497 10.6161 3.70335 10.5955 3.70389 10.5953C3.70944 10.594 3.74661 10.5988 3.81711 10.6503C4.48137 11.2535 5.56925 11.2274 6.28563 10.6023H7.71424C8.04567 10.8917 8.46683 11.063 8.90924 11.0868C9.39225 11.1128 9.84385 10.9578 10.1828 10.6503C10.2622 10.5922 10.2954 10.595 10.2958 10.5953C10.2962 10.5955 10.3445 10.616 10.4059 10.7786L10.8795 12.0422C11.1046 12.6416 11.78 13.0366 12.4704 13.0365C12.6409 13.0365 12.8124 13.0124 12.9781 12.9614C13.3686 12.8412 13.6655 12.5882 13.8366 12.2296C14.028 11.8287 14.0514 11.3215 13.906 10.722V10.722ZM10.5761 4.70847H11.0358C11.2138 4.70847 11.3621 4.8376 11.3928 5.00732C11.2227 4.96599 11.044 4.9442 10.8593 4.94356C10.8564 4.94356 10.8536 4.94356 10.8509 4.94356C10.6288 4.94356 10.4121 4.97411 10.2152 5.02794C10.2373 4.84828 10.3906 4.70847 10.5761 4.70847V4.70847ZM2.96496 4.70847H3.42372C3.60936 4.70847 3.76263 4.84828 3.78464 5.02805C3.58789 4.97421 3.37106 4.94356 3.149 4.94356C3.14665 4.94356 3.1443 4.94356 3.14195 4.94356C2.95685 4.94409 2.77772 4.96588 2.60715 5.00732C2.63801 4.8376 2.78648 4.70847 2.96496 4.70847ZM12.8575 12.5695C12.2898 12.7442 11.4874 12.4942 11.2635 11.8981L10.7897 10.6342C10.6976 10.3904 10.5734 10.249 10.4099 10.2016C10.2602 10.158 10.0984 10.2007 9.92897 10.3281C9.92363 10.3322 9.9184 10.3366 9.91349 10.3411C9.38594 10.8262 8.49834 10.7849 7.93502 10.2489C7.89688 10.2126 7.84626 10.1924 7.7937 10.1924H6.20627C6.15372 10.1924 6.10309 10.2126 6.06496 10.2489C5.50121 10.7852 4.61371 10.8266 4.08659 10.3412C4.08157 10.3366 4.07634 10.3322 4.07089 10.3281C3.90128 10.2005 3.73924 10.158 3.58917 10.2017C3.42554 10.2493 3.30153 10.3909 3.2101 10.6346L2.73575 11.8981C2.51219 12.4942 1.71025 12.7442 1.14265 12.5697C0.507016 12.3741 0.270001 11.7359 0.492383 10.8185L1.47986 6.74227C1.65823 6.00623 2.05429 5.65215 2.44853 5.48744C2.46509 5.48306 2.48089 5.47676 2.49553 5.46854C2.73073 5.37903 2.96219 5.35414 3.14313 5.35361C3.44925 5.35318 3.71329 5.41887 3.90608 5.50304C3.90939 5.50453 3.9127 5.50613 3.91623 5.50752C4.09151 5.5856 4.20569 5.67864 4.23634 5.74967V6.34129C4.23634 6.79877 4.60858 7.17101 5.06606 7.17101H8.9337C9.39075 7.17101 9.76267 6.79877 9.76267 6.34129V5.74977C9.793 5.6796 9.90473 5.58785 10.0761 5.5103C10.0861 5.50667 10.0958 5.50261 10.105 5.49759C10.2954 5.41631 10.5525 5.35361 10.8503 5.35361H10.8577C11.0384 5.35425 11.2697 5.37924 11.5046 5.46875C11.519 5.47676 11.5346 5.48296 11.5509 5.48734C11.9453 5.65193 12.3415 6.00601 12.5199 6.74216L13.5074 10.8185C13.7299 11.7357 13.493 12.3739 12.8575 12.5695V12.5695Z" fill="white"/>
<path d="M9.07251 8.36003C8.53674 8.36003 8.10095 8.79582 8.10095 9.33159C8.10095 9.86735 8.53674 10.3031 9.07251 10.3031C9.60817 10.3031 10.0441 9.86724 10.0441 9.33159C10.0441 8.79582 9.60817 8.36003 9.07251 8.36003ZM9.07251 9.8932C8.76286 9.8932 8.511 9.64123 8.511 9.33159C8.511 9.02194 8.76286 8.77008 9.07251 8.77008C9.38215 8.77008 9.63401 9.02194 9.63401 9.33159C9.63401 9.64123 9.38215 9.8932 9.07251 9.8932V9.8932Z" fill="white"/>
<path d="M3.67099 7.0408H3.60861V6.97842C3.60861 6.6316 3.32642 6.34941 2.9796 6.34941C2.63278 6.34941 2.35059 6.6316 2.35059 6.97842V7.0408H2.28821C1.94139 7.0408 1.6593 7.32299 1.6593 7.66981C1.6593 8.01662 1.94139 8.29881 2.28821 8.29881H2.35059V8.36119C2.35059 8.70801 2.63278 8.9902 2.9796 8.9902C3.32642 8.9902 3.60861 8.70801 3.60861 8.36119V8.29881H3.67099C4.01781 8.29881 4.30001 8.01662 4.30001 7.66981C4.30001 7.32299 4.01781 7.0408 3.67099 7.0408ZM3.67099 7.88877H3.40364C3.29042 7.88877 3.19856 7.98052 3.19856 8.09374V8.36119C3.19856 8.48189 3.1004 8.58015 2.9796 8.58015C2.8589 8.58015 2.76074 8.48189 2.76074 8.36119V8.09374C2.76074 7.98052 2.66889 7.88877 2.55566 7.88877H2.28832C2.16762 7.88877 2.06935 7.7905 2.06935 7.66981C2.06935 7.54911 2.16762 7.45084 2.28832 7.45084H2.55566C2.66889 7.45084 2.76074 7.35899 2.76074 7.24577V6.97842C2.76074 6.85762 2.8589 6.75946 2.9796 6.75946C3.1004 6.75946 3.19856 6.85762 3.19856 6.97842V7.24577C3.19856 7.35899 3.29042 7.45084 3.40364 7.45084H3.67099C3.79169 7.45084 3.88996 7.54911 3.88996 7.66981C3.88996 7.7905 3.7918 7.88877 3.67099 7.88877Z" fill="white"/>
<path d="M6.46214 7.79959H6.16445C6.05123 7.79959 5.95947 7.89145 5.95947 8.00466C5.95947 8.11788 6.05123 8.20963 6.16445 8.20963H6.46214C6.57536 8.20963 6.66711 8.11788 6.66711 8.00466C6.66711 7.89145 6.57536 7.79959 6.46214 7.79959Z" fill="white"/>
<path d="M7.83567 7.79959H7.53723C7.42401 7.79959 7.33215 7.89145 7.33215 8.00466C7.33215 8.11788 7.42401 8.20963 7.53723 8.20963H7.83567C7.94889 8.20963 8.04065 8.11788 8.04065 8.00466C8.04065 7.89145 7.94889 7.79959 7.83567 7.79959Z" fill="white"/>
<path d="M7.22788 8.8739H6.9303C6.81708 8.8739 6.72522 8.96566 6.72522 9.07888C6.72522 9.19211 6.81708 9.28397 6.9303 9.28397H7.22788C7.34121 9.28397 7.43296 9.19211 7.43296 9.07888C7.43296 8.96566 7.34121 8.8739 7.22788 8.8739Z" fill="white"/>
</g>
<defs>
<clipPath id="clip0">
<rect width="14" height="14" fill="white"/>
</clipPath>
</defs>
</svg>
