<svg width="18" height="18" viewBox="0 0 18 18" fill="none" xmlns="http://www.w3.org/2000/svg">
<path d="M12.8645 11.3208H12.0463L11.7633 11.0377C12.7719 9.86966 13.3791 8.35163 13.3791 6.68955C13.3791 2.99485 10.3842 0 6.68955 0C2.9949 0 0 2.99485 0 6.68955C0 10.3843 2.99485 13.3791 6.68955 13.3791C8.35163 13.3791 9.86966 12.7719 11.0377 11.7685L11.3208 12.0515V12.8645L16.4665 18L18 16.4665L12.8645 11.3208ZM6.68955 11.3208C4.13211 11.3208 2.05834 9.247 2.05834 6.68955C2.05834 4.13211 4.13211 2.05834 6.68955 2.05834C9.247 2.05834 11.3208 4.13211 11.3208 6.68955C11.3208 9.247 9.247 11.3208 6.68955 11.3208Z" fill="#FEFEFE"/>
</svg>
