<svg width="16" height="16" viewBox="0 0 16 16" fill="none" xmlns="http://www.w3.org/2000/svg">
<path d="M15.7442 7.37834L9.96609 1.60005C9.80115 1.43511 9.58131 1.34457 9.34691 1.34457C9.11224 1.34457 8.89254 1.43524 8.7276 1.60005L8.20298 2.12479C8.03817 2.28947 7.94738 2.50944 7.94738 2.74397C7.94738 2.97838 8.03817 3.20576 8.20298 3.37044L11.5739 6.74875H0.864383C0.381525 6.74875 0 7.12677 0 7.60976V8.3516C0 8.83459 0.381525 9.25072 0.864383 9.25072H11.6121L8.20311 12.6479C8.0383 12.8128 7.94751 13.0268 7.94751 13.2614C7.94751 13.4956 8.0383 13.7127 8.20311 13.8775L8.72773 14.4006C8.89267 14.5655 9.11237 14.6554 9.34704 14.6554C9.58144 14.6554 9.80128 14.5644 9.96622 14.3994L15.7444 8.62126C15.9097 8.4558 16.0006 8.23492 16 8.00013C16.0005 7.76455 15.9097 7.54354 15.7442 7.37834Z" fill="#FEFEFE"/>
</svg>
